# xmcd
#
# Track frame offsets:
# 150
# 4457
# 29986
# 53420
# 72035
# 94782
# 111945
# 128790
# 146307
# 165889
# 185679
#
# Disc length: 3036 seconds
#
# Revision: 1
# Processed by: cddbd v1.5.2PL0 Copyright (c) Steve Scherf et al.
# Submitted via: CedeCatalogueitor 2.6.0.6 http://personales.ya.com/cdcatalogueitor
#
DISCID=910bda0b
DTITLE=Zabriskie - Sincronismos Y Otras Percepciones
DYEAR=1900
DGENRE=
TTITLE0=Preludio
TTITLE1=Cansado De Esperar
TTITLE2=Gracias
TTITLE3=Canción Relajada
TTITLE4=Deseo Innecesario
TTITLE5=Forgive Me
TTITLE6=La Sinfonia (De Este Día)
TTITLE7=Mystic Soul
TTITLE8=Paz En La Mente
TTITLE9=Viaje Astral
TTITLE10=Trying To Find
EXTD=
EXTT0=
EXTT1=
EXTT2=
EXTT3=
EXTT4=
EXTT5=
EXTT6=
EXTT7=
EXTT8=
EXTT9=
EXTT10=
PLAYORDER=
